<svg id="Layer_1" data-name="Layer 1" xmlns="http://www.w3.org/2000/svg" width="50" height="50" viewBox="0 0 50 50">
  <rect x="1.9" width="46.21" height="46.21" rx="21.72" style="fill: #2b2b2b"/>
  <polygon points="25 44.46 31.38 44.46 28.19 47.23 25 50 21.81 47.23 18.62 44.46 25 44.46" style="fill: #2b2b2b"/>
  <path d="M20.52,29.35a1.25,1.25,0,0,0,1.25-1.25v-.25a1,1,0,0,0-.08-.22.7.7,0,0,0-.11-.23l-.15-.18A1.22,1.22,0,0,0,21,27a1.3,1.3,0,0,0-.75-.1l-.23.08-.22.11-.19.15-.15.19a.65.65,0,0,0-.11.22,1,1,0,0,0-.08.23v.25a1.25,1.25,0,0,0,1.25,1.25Zm10,0a1.25,1.25,0,0,0,1.25-1.25v-.25a.65.65,0,0,0-.08-.22.7.7,0,0,0-.11-.23l-.15-.18A1.62,1.62,0,0,0,31,27a1.3,1.3,0,0,0-.95,0,1.62,1.62,0,0,0-.41.27l-.15.18a1,1,0,0,0-.12.23.94.94,0,0,0-.07.22,1,1,0,0,0,0,.25,1.25,1.25,0,0,0,.36.88A1.21,1.21,0,0,0,30.52,29.35Zm-3.75-15h-2.5a1.25,1.25,0,1,0,0,2.5h2.5a1.25,1.25,0,1,0,0-2.5ZM33,10.6H18a3.75,3.75,0,0,0-3.75,3.75v15a3.74,3.74,0,0,0,2.5,3.53v1.48a1.25,1.25,0,0,0,2.5,0V33.11h12.5v1.25a1.25,1.25,0,1,0,2.5,0V32.88a3.77,3.77,0,0,0,2.5-3.53v-15A3.75,3.75,0,0,0,33,10.6Zm1.25,18.75A1.24,1.24,0,0,1,33,30.6H18a1.24,1.24,0,0,1-1.25-1.25V25.6h17.5Zm0-6.25H16.77V14.35A1.25,1.25,0,0,1,18,13.1H33a1.25,1.25,0,0,1,1.25,1.25Z" style="fill: #fff"/>
</svg>
