<svg id="Layer_1" data-name="Layer 1" xmlns="http://www.w3.org/2000/svg" width="50" height="50" viewBox="0 0 50 50">
  <rect x="1.9" width="46.21" height="46.21" rx="21.72" style="fill: #2b2b2b"/>
  <polygon points="25 44.46 31.38 44.46 28.19 47.23 25 50 21.81 47.23 18.62 44.46 25 44.46" style="fill: #2b2b2b"/>
  <path d="M28.63,29.35h1.25a1.25,1.25,0,1,0,0-2.5H28.63a1.25,1.25,0,0,0,0,2.5Zm7.5,0v-10a3.75,3.75,0,0,0-3.75-3.75H26.13V13.1h5a1.25,1.25,0,1,0,0-2.5H18.63a1.25,1.25,0,0,0,0,2.5h5v2.5H17.38a3.74,3.74,0,0,0-3.74,3.75v10a3.75,3.75,0,0,0,1.49,3L14,33.46a1.25,1.25,0,0,0,0,1.77h0a1.24,1.24,0,0,0,1.76,0h0L17.9,33.1h14L34,35.24a1.25,1.25,0,0,0,1.77,0h0a1.26,1.26,0,0,0,0-1.77h0l-1.14-1.12A3.76,3.76,0,0,0,36.13,29.35Zm-20-10a1.25,1.25,0,0,1,1.25-1.25h6.25v5h-7.5Zm17.5,10a1.25,1.25,0,0,1-1.25,1.25h-15a1.25,1.25,0,0,1-1.25-1.25V25.6h17.5Zm0-6.25h-7.5v-5h6.25a1.25,1.25,0,0,1,1.25,1.25ZM19.88,29.35h1.25a1.25,1.25,0,1,0,0-2.5H19.88a1.25,1.25,0,0,0,0,2.5Z" style="fill: #fff"/>
</svg>
