<svg id="Layer_1" data-name="Layer 1" xmlns="http://www.w3.org/2000/svg" width="50" height="50" viewBox="0 0 50 50">
  <rect x="1.9" width="46.21" height="46.21" rx="21.72" style="fill: #2b2b2b"/>
  <polygon points="25 44.46 31.38 44.46 28.19 47.23 25 50 21.81 47.23 18.62 44.46 25 44.46" style="fill: #2b2b2b"/>
  <path d="M20.89,26a1.25,1.25,0,0,0-1.36-.26,1.13,1.13,0,0,0-.68.67A1.25,1.25,0,0,0,19.51,28a1.24,1.24,0,0,0,1.64-.66,1.28,1.28,0,0,0,0-1A1.36,1.36,0,0,0,20.89,26Zm10,0a1.32,1.32,0,0,0-1.78,0,1.36,1.36,0,0,0-.26.41,1.24,1.24,0,0,0,.26,1.37,1.36,1.36,0,0,0,.41.26,1.21,1.21,0,0,0,.95,0,1.41,1.41,0,0,0,.42-.26,1.26,1.26,0,0,0,.26-1.37A1.36,1.36,0,0,0,30.89,26Zm3.24,5.76a6.21,6.21,0,0,0,2.24-6l-1.88-10a6.24,6.24,0,0,0-6.14-5.1h-6.7a6.24,6.24,0,0,0-6.14,5.1l-1.88,10a6.21,6.21,0,0,0,2.24,6l-1.75,1.74a1.25,1.25,0,1,0,1.75,1.79l0,0,2.33-2.33a6.3,6.3,0,0,0,1.56.2H30.22a6.3,6.3,0,0,0,1.56-.2l2.33,2.33a1.25,1.25,0,0,0,1.77-1.77ZM18,16.16a3.75,3.75,0,0,1,3.68-3.06h6.7A3.75,3.75,0,0,1,32,16.16l.44,2.31a9.94,9.94,0,0,1-14,.91,11.16,11.16,0,0,1-.91-.91ZM33.11,29.24a3.75,3.75,0,0,1-2.89,1.36H19.78A3.74,3.74,0,0,1,16,26.85a4,4,0,0,1,.06-.69L17,21.42a12.43,12.43,0,0,0,16,0l.89,4.74A3.73,3.73,0,0,1,33.11,29.24Z" style="fill: #fff;stroke: #fff"/>
</svg>
