<?xml version="1.0" encoding="utf-8"?>
<!-- Generator: Adobe Illustrator 27.1.1, SVG Export Plug-In . SVG Version: 6.00 Build 0)  -->
<svg version="1.2" baseProfile="tiny" id="Layer_1" xmlns="http://www.w3.org/2000/svg" xmlns:xlink="http://www.w3.org/1999/xlink"
	 x="0px" y="0px" viewBox="0 0 125 50" overflow="visible" xml:space="preserve" width="125" height="50">
<path fill="#2B2B2B" d="M21.7,0h81.6c12,0,21.7,9.7,21.7,21.7v2.8c0,12-9.7,21.7-21.7,21.7H21.7C9.7,46.2,0,36.5,0,24.5v-2.8
	C0,9.7,9.7,0,21.7,0z"/>
<polygon fill="#2B2B2B" points="23.1,44.5 29.5,44.5 26.3,47.2 23.1,50 19.9,47.2 16.7,44.5 "/>
<path fill="#FFFFFF" stroke="#FFFFFF" d="M19,26c-0.4-0.4-0.9-0.5-1.4-0.3c-0.3,0.1-0.6,0.4-0.7,0.7C16.7,27,17,27.7,17.6,28
	c0.6,0.3,1.4,0,1.6-0.6c0,0,0,0,0,0c0.1-0.3,0.1-0.7,0-1C19.2,26.2,19.1,26.1,19,26z M29,26c-0.5-0.5-1.3-0.5-1.8,0
	c-0.1,0.1-0.2,0.3-0.3,0.4c-0.2,0.5-0.1,1,0.3,1.4c0.1,0.1,0.3,0.2,0.4,0.3c0.3,0.1,0.6,0.1,1,0c0.2-0.1,0.3-0.1,0.4-0.3
	c0.4-0.4,0.5-0.9,0.3-1.4C29.2,26.3,29.1,26.1,29,26z M32.2,31.8c1.8-1.4,2.7-3.7,2.2-6l-1.9-10c-0.5-3-3.1-5.1-6.1-5.1h-6.7
	c-3,0-5.6,2.1-6.1,5.1l-1.9,10c-0.4,2.3,0.4,4.6,2.2,6l-1.8,1.7c-0.5,0.5-0.5,1.3,0,1.8c0.5,0.5,1.3,0.5,1.8,0l0,0l2.3-2.3
	c0.5,0.1,1,0.2,1.6,0.2h10.5c0.5,0,1.1-0.1,1.6-0.2l2.3,2.3c0.5,0.5,1.3,0.5,1.8,0s0.5-1.3,0-1.8L32.2,31.8z M16.1,16.2
	c0.3-1.8,1.9-3.1,3.7-3.1h6.7c1.8,0,3.3,1.3,3.6,3.1l0.4,2.3c-3.6,4.1-9.9,4.5-14,0.9c-0.3-0.3-0.6-0.6-0.9-0.9L16.1,16.2z
	 M31.2,29.2c-0.7,0.9-1.8,1.4-2.9,1.4H17.9c-2.1,0-3.8-1.6-3.8-3.7c0,0,0,0,0-0.1c0-0.2,0-0.5,0.1-0.7l0.9-4.7
	c4.6,3.9,11.4,3.9,16,0l0.9,4.7C32.2,27.3,31.9,28.4,31.2,29.2z"/>
</svg>
