<?xml version="1.0" standalone="no"?>
<!DOCTYPE svg PUBLIC "-//W3C//DTD SVG 20010904//EN"
 "http://www.w3.org/TR/2001/REC-SVG-20010904/DTD/svg10.dtd">
<svg version="1.0" xmlns="http://www.w3.org/2000/svg"
 width="512.000000pt" height="512.000000pt" viewBox="0 0 512.000000 512.000000"
 preserveAspectRatio="xMidYMid meet">
<metadata>
Created by potrace 1.14, written by Peter Selinger 2001-2017
</metadata>
<g transform="translate(0.000000,512.000000) scale(0.100000,-0.100000)"
fill="#000000" stroke="none">
<path d="M2360 5114 c-202 -24 -306 -41 -425 -71 -912 -228 -1630 -946 -1858
-1858 -55 -222 -72 -365 -72 -625 0 -260 17 -403 72 -625 228 -912 946 -1630
1858 -1858 222 -55 365 -72 625 -72 260 0 403 17 625 72 912 228 1630 946
1858 1858 55 222 72 365 72 625 0 260 -17 403 -72 625 -225 902 -929 1614
-1828 1851 -207 54 -368 75 -610 79 -115 2 -226 1 -245 -1z m870 -932 c41 -13
115 -44 165 -70 73 -37 108 -64 185 -142 96 -96 155 -186 196 -302 8 -23 78
-373 156 -778 130 -683 140 -743 140 -850 0 -211 -69 -383 -217 -539 l-82 -86
119 -110 c65 -60 127 -124 138 -141 27 -43 28 -137 0 -178 -42 -64 -134 -93
-207 -65 -15 6 -103 85 -194 175 l-166 165 -64 -10 c-91 -15 -1601 -15 -1687
0 l-64 11 -167 -165 c-91 -91 -176 -170 -188 -176 -12 -6 -40 -11 -63 -11
-112 0 -186 92 -166 207 6 32 27 58 143 169 l136 132 -60 59 c-94 91 -170 219
-206 345 -24 80 -39 224 -32 298 9 90 271 1473 291 1535 89 275 322 480 614
540 51 11 191 13 635 11 561 -2 571 -2 645 -24z"/>
<path d="M2024 3885 c-91 -20 -180 -69 -249 -139 -87 -87 -116 -153 -165 -376
l-40 -185 77 -77 c346 -348 875 -464 1350 -297 177 63 324 153 462 285 l89 84
-9 42 c-4 24 -20 107 -34 186 -32 179 -62 250 -145 336 -70 73 -149 119 -241
141 -88 20 -1000 21 -1095 0z"/>
<path d="M1470 2623 c-17 -93 -47 -246 -66 -341 -38 -194 -41 -242 -19 -326
46 -177 174 -307 354 -360 48 -14 149 -16 821 -16 843 0 811 -2 933 63 67 35
166 136 201 205 73 145 73 209 -5 617 -34 176 -63 322 -65 324 -2 2 -27 -14
-56 -37 -433 -330 -990 -426 -1513 -260 -133 42 -350 153 -458 233 -48 36 -89
65 -91 65 -2 0 -18 -75 -36 -167z m518 -410 c50 -37 63 -65 64 -135 2 -78 -19
-121 -72 -150 -46 -25 -125 -20 -169 11 -89 64 -96 209 -12 268 54 37 143 40
189 6z m1328 -4 c120 -74 95 -264 -38 -300 -118 -31 -218 44 -218 163 0 48 4
59 37 97 43 51 61 60 132 60 37 1 64 -5 87 -20z"/>
</g>
</svg>
