<?xml version="1.0" standalone="no"?>
<!DOCTYPE svg PUBLIC "-//W3C//DTD SVG 20010904//EN"
 "http://www.w3.org/TR/2001/REC-SVG-20010904/DTD/svg10.dtd">
<svg version="1.0" xmlns="http://www.w3.org/2000/svg"
 width="512.000000pt" height="512.000000pt" viewBox="0 0 512.000000 512.000000"
 preserveAspectRatio="xMidYMid meet">
<metadata>
Created by potrace 1.14, written by Peter Selinger 2001-2017
</metadata>
<g transform="translate(0.000000,512.000000) scale(0.100000,-0.100000)"
fill="#000000" stroke="none">
<path d="M2360 5114 c-202 -24 -306 -41 -425 -71 -912 -228 -1630 -946 -1858
-1858 -55 -222 -72 -365 -72 -625 0 -260 17 -403 72 -625 228 -912 946 -1630
1858 -1858 222 -55 365 -72 625 -72 260 0 403 17 625 72 912 228 1630 946
1858 1858 55 222 72 365 72 625 0 260 -17 403 -72 625 -225 902 -929 1614
-1828 1851 -207 54 -368 75 -610 79 -115 2 -226 1 -245 -1z m868 -932 c268
-82 471 -278 551 -533 11 -35 82 -388 157 -784 123 -643 137 -731 137 -825 0
-62 -7 -133 -17 -173 -34 -142 -122 -293 -230 -395 l-57 -54 138 -132 138
-133 0 -76 c0 -70 -2 -78 -30 -107 -16 -18 -42 -38 -57 -46 -32 -17 -96 -18
-135 -3 -15 6 -103 85 -195 176 l-166 165 -64 -11 c-90 -15 -1596 -15 -1686 0
l-64 11 -171 -170 c-184 -182 -200 -192 -283 -179 -98 16 -159 128 -123 224 5
15 69 85 142 154 l132 127 -64 63 c-158 156 -236 351 -234 584 1 98 16 190
137 825 75 393 144 738 153 765 71 222 250 412 468 496 147 57 158 58 780 55
559 -2 571 -2 643 -24z"/>
<path d="M2016 3884 c-142 -34 -279 -143 -337 -269 -17 -35 -46 -140 -70 -250
l-41 -190 81 -76 c367 -344 878 -453 1348 -288 178 63 329 156 462 284 l88 85
-28 160 c-35 201 -43 231 -82 305 -62 117 -183 208 -318 240 -91 21 -1014 21
-1103 -1z"/>
<path d="M1500 2786 c0 -3 -28 -146 -62 -318 -33 -172 -63 -340 -66 -372 -17
-232 154 -455 388 -505 41 -9 260 -11 836 -9 l781 3 85 42 c112 56 185 129
240 240 37 74 41 91 46 175 4 84 -2 125 -58 418 -34 179 -64 327 -66 329 -2 3
-17 -5 -32 -17 -501 -398 -1188 -472 -1757 -189 -89 44 -194 109 -271 168 -47
36 -64 45 -64 35z m497 -582 c42 -32 55 -63 55 -136 0 -104 -60 -163 -158
-155 -97 7 -160 83 -152 184 8 91 81 148 177 138 26 -3 58 -15 78 -31z m1316
7 c34 -22 71 -75 81 -114 16 -68 -44 -168 -112 -187 -60 -16 -95 -12 -143 19
-107 67 -106 206 0 278 44 30 132 32 174 4z"/>
</g>
</svg>
