<?xml version="1.0" standalone="no"?>
<!DOCTYPE svg PUBLIC "-//W3C//DTD SVG 20010904//EN"
 "http://www.w3.org/TR/2001/REC-SVG-20010904/DTD/svg10.dtd">
<svg version="1.0" xmlns="http://www.w3.org/2000/svg"
 width="512.000000pt" height="512.000000pt" viewBox="0 0 512.000000 512.000000"
 preserveAspectRatio="xMidYMid meet">
<metadata>
Created by potrace 1.14, written by Peter Selinger 2001-2017
</metadata>
<g transform="translate(0.000000,512.000000) scale(0.100000,-0.100000)"
fill="#000000" stroke="none">
<path d="M2320 5109 c-592 -57 -1147 -318 -1569 -740 -927 -927 -1004 -2394
-181 -3418 883 -1098 2496 -1268 3599 -381 1098 883 1268 2496 381 3599 -533
662 -1384 1021 -2230 940z m875 -957 c268 -75 470 -260 556 -510 10 -30 80
-376 155 -770 123 -647 137 -727 136 -822 -1 -200 -73 -376 -212 -523 l-77
-82 112 -105 c133 -124 155 -157 155 -230 0 -87 -54 -149 -143 -165 -71 -14
-108 11 -280 183 l-158 158 -77 -12 c-105 -17 -1479 -19 -1600 -2 l-82 11
-164 -161 c-135 -133 -170 -162 -206 -172 -105 -28 -207 42 -218 148 -6 71 13
101 151 233 l121 116 -55 54 c-154 151 -230 337 -231 564 0 113 7 160 136 832
75 391 145 736 157 765 105 270 348 464 634 507 33 5 296 8 585 7 508 -2 528
-3 605 -24z"/>
<path d="M1994 3830 c-126 -40 -238 -139 -289 -255 -13 -27 -40 -130 -61 -229
l-38 -179 95 -91 c328 -312 817 -418 1256 -271 188 63 341 154 476 284 l79 76
-31 172 c-17 94 -40 196 -51 225 -40 107 -148 216 -257 259 l-58 24 -530 2
c-500 2 -533 1 -591 -17z"/>
<path d="M1476 2467 c-33 -166 -61 -330 -63 -364 -16 -221 141 -424 368 -478
95 -22 1476 -22 1562 0 215 56 367 245 367 458 0 59 -95 612 -116 676 -3 11
-8 10 -27 -3 -229 -168 -436 -265 -681 -318 -87 -19 -131 -22 -321 -22 -237 0
-320 11 -501 69 -118 38 -327 144 -431 219 -51 36 -93 66 -95 66 -2 0 -30
-136 -62 -303z m532 -239 c51 -31 66 -61 66 -137 1 -79 -21 -124 -74 -152
-111 -60 -250 28 -250 158 0 126 144 199 258 131z m1281 3 c91 -47 118 -154
61 -245 -50 -78 -143 -100 -226 -51 -59 34 -84 79 -84 147 0 45 5 62 29 95 51
71 142 93 220 54z"/>
</g>
</svg>
